<?xml version="1.0" encoding="UTF-8"?>
<!DOCTYPE svg PUBLIC "-//W3C//DTD SVG 1.1//EN" "http://www.w3.org/Graphics/SVG/1.1/DTD/svg11.dtd">
<svg version="1.1" xmlns="http://www.w3.org/2000/svg" xmlns:xlink="http://www.w3.org/1999/xlink" x="0" y="0" width="100" height="100" viewBox="0, 0, 100, 100">
  <g id="Layer_1">
    <path d="M71.311,66.505 C71.307,66.532 71.306,66.558 71.306,66.585 C71.306,66.59 71.306,66.593 71.306,66.597 L71.306,82.017 C71.229,82.922 70.471,83.634 69.543,83.634 C69.529,83.634 69.522,83.638 69.511,83.639 L54.262,83.639 C54.26,83.639 54.256,83.639 54.253,83.639 C54.233,83.639 54.215,83.641 54.196,83.642 L44.672,83.642 C43.406,83.642 42.382,82.617 42.382,81.351 C42.382,80.087 43.406,79.06 44.672,79.06 C44.676,79.06 44.68,79.062 44.686,79.062 L64.405,79.062 C64.422,79.059 64.431,79.055 64.447,79.055 C65.646,79.055 66.629,78.134 66.729,76.962 L66.729,57.019 C66.729,57.014 66.728,57.007 66.728,57.003 C66.728,55.737 67.754,54.712 69.019,54.712 C70.282,54.712 71.311,55.737 71.311,57.003 L71.311,66.505 z M31.953,70.902 C31.953,69.639 32.978,68.613 34.245,68.613 C34.249,68.613 34.256,68.613 34.259,68.613 L53.98,68.613 C53.995,68.611 54.005,68.607 54.02,68.607 C55.22,68.607 56.203,67.687 56.301,66.514 L56.301,46.57 C56.301,46.565 56.301,46.56 56.301,46.555 C56.301,45.29 57.328,44.264 58.593,44.264 C59.857,44.264 60.882,45.29 60.882,46.555 L60.882,56.056 C60.881,56.084 60.879,56.111 60.879,56.137 C60.879,56.142 60.881,56.146 60.881,56.15 L60.881,71.569 C60.802,72.475 60.043,73.187 59.115,73.187 C59.103,73.187 59.094,73.191 59.084,73.193 L43.836,73.193 C43.836,73.193 43.827,73.191 43.825,73.191 C43.806,73.191 43.788,73.193 43.77,73.195 L34.245,73.195 C32.978,73.195 31.953,72.169 31.953,70.902 z M30.209,44.761 C28.944,44.761 27.919,43.736 27.919,42.471 L27.919,32.974 C27.92,32.945 27.923,32.914 27.923,32.883 C27.923,32.879 27.923,32.877 27.923,32.872 L27.923,17.453 C27.999,16.546 28.758,15.834 29.685,15.834 C29.693,15.834 29.695,15.833 29.7,15.832 L54.558,15.832 C55.823,15.832 56.848,16.858 56.848,18.123 C56.848,19.387 55.823,20.413 54.558,20.413 C54.552,20.413 54.548,20.413 53.103,20.413 L33.382,20.413 C34.806,20.414 34.795,20.419 34.779,20.419 C33.582,20.419 32.598,21.339 32.498,22.512 L32.498,42.455 C32.498,42.46 32.498,42.466 32.498,42.471 C32.498,43.736 31.472,44.761 30.209,44.761 z M67.244,28.517 C67.244,29.782 66.217,30.807 64.951,30.807 C64.947,30.807 64.943,30.807 64.936,30.807 L45.215,30.807 C45.2,30.809 45.191,30.813 45.173,30.813 C43.975,30.813 42.993,31.734 42.893,32.907 L42.893,52.849 C42.893,52.854 42.893,52.859 42.893,52.865 C42.893,54.13 41.868,55.156 40.605,55.156 C39.339,55.156 38.313,54.13 38.313,52.865 L38.313,43.369 C38.314,43.338 38.316,43.309 38.316,43.277 C38.316,43.274 38.315,43.271 38.315,43.266 L38.315,27.847 C38.395,26.94 39.153,26.228 40.08,26.228 C40.086,26.228 40.091,26.228 40.094,26.225 L64.951,26.225 C66.217,26.225 67.244,27.252 67.244,28.517 z M52.147,6.474 L27.309,6.474 L27.307,6.475 C27.294,6.475 27.282,6.474 27.269,6.474 C20.747,6.474 15.454,11.692 15.313,18.18 L15.299,18.193 L15.299,61.147 C15.299,78.739 29.562,93 47.153,93 L72.47,93 L72.492,92.977 C78.868,92.733 83.967,87.516 83.998,81.088 L84,81.086 L84,38.327 C84,20.734 69.738,6.474 52.147,6.474" fill="#50285F"/>
  </g>
</svg>
